<svg width="21" height="23" viewBox="0 0 21 23" fill="none" xmlns="http://www.w3.org/2000/svg">
<path d="M10.5 21.5C11.8797 21.5 12.9989 20.3809 12.9989 19H8.0012C8.0012 20.3809 9.12034 21.5 10.5 21.5ZM18.9137 15.652C18.159 14.841 16.7469 13.6211 16.7469 9.625C16.7469 6.58984 14.6188 4.16016 11.7492 3.56406V2.75C11.7492 2.05977 11.1899 1.5 10.5 1.5C9.81018 1.5 9.25081 2.05977 9.25081 2.75V3.56406C6.38128 4.16016 4.25315 6.58984 4.25315 9.625C4.25315 13.6211 2.84104 14.841 2.08636 15.652C1.85198 15.9039 1.74807 16.2051 1.75003 16.5C1.75432 17.1406 2.25706 17.75 3.00393 17.75H17.9961C18.743 17.75 19.2461 17.1406 19.25 16.5C19.252 16.2051 19.1481 15.9035 18.9137 15.652Z" fill="white" stroke="black" stroke-width="2"/>
</svg>
