<svg width="35" height="35" viewBox="0 0 35 35" fill="none" xmlns="http://www.w3.org/2000/svg">
<rect x="1" y="1" width="33" height="33" rx="16.5" stroke="#C41605" stroke-width="2"/>
<path d="M24.8555 18.1419C24.8555 14.1139 21.5676 10.8389 17.5 10.8389C13.4324 10.8389 10.1445 14.1139 10.1445 18.1419C10.1445 19.2361 10.2797 19.9394 10.4461 20.4552C10.5583 20.7973 10.8258 20.4598 10.9582 20.3357C11.3926 19.9283 11.9682 19.7055 12.5637 19.7141C13.1591 19.7226 13.728 19.962 14.1505 20.3817C15.457 21.6799 16.6624 23.4802 14.9973 25.1352C14.1036 26.0233 12.7576 26.3929 11.7333 25.4367C10.4112 24.201 9.2628 22.763 8.69734 21.0234C8.46197 20.2934 8.30566 19.3933 8.30566 18.141C8.30566 13.0869 12.4275 9 17.5 9C22.5725 9 26.6944 13.0869 26.6944 18.1419C26.6944 19.3942 26.539 20.2943 26.3027 21.0225C25.7372 22.763 24.5888 24.201 23.2667 25.4358C22.2425 26.3929 20.8964 26.0242 20.0027 25.1352C18.3385 23.4802 19.543 21.6799 20.8486 20.3817C21.2711 19.9617 21.8402 19.7222 22.4359 19.7136C23.0316 19.705 23.6073 19.9281 24.0418 20.3357C24.2965 20.5748 24.4224 20.8598 24.5539 20.4552C24.7203 19.9403 24.8555 19.2351 24.8555 18.1419Z" fill="#C41605"/>
</svg>
