<svg width="24" height="25" viewBox="0 0 24 25" fill="none" xmlns="http://www.w3.org/2000/svg">
<path fill-rule="evenodd" clip-rule="evenodd" d="M5 4.25C4.30964 4.25 3.75 4.80964 3.75 5.5V19.5C3.75 20.0943 4.16479 20.5918 4.72067 20.7187L15.4697 9.96965C15.7626 9.67676 16.2375 9.67676 16.5303 9.96965L20.25 13.6893V5.5C20.25 4.80964 19.6904 4.25 19 4.25H5ZM21.75 15.4949V5.5C21.75 3.98122 20.5188 2.75 19 2.75H5C3.48122 2.75 2.25 3.98122 2.25 5.5V19.5C2.25 21.0188 3.48122 22.25 5 22.25H19C20.5188 22.25 21.75 21.0188 21.75 19.5V15.5051C21.75 15.5017 21.75 15.4983 21.75 15.4949ZM20.25 15.8106L16 11.5606L6.81066 20.75H19C19.6904 20.75 20.25 20.1904 20.25 19.5V15.8106ZM8.49998 8.24998C8.08577 8.24998 7.74998 8.58577 7.74998 8.99998C7.74998 9.4142 8.08577 9.74998 8.49998 9.74998C8.9142 9.74998 9.24998 9.4142 9.24998 8.99998C9.24998 8.58577 8.9142 8.24998 8.49998 8.24998ZM6.24998 8.99998C6.24998 7.75734 7.25734 6.74998 8.49998 6.74998C9.74262 6.74998 10.75 7.75734 10.75 8.99998C10.75 10.2426 9.74262 11.25 8.49998 11.25C7.25734 11.25 6.24998 10.2426 6.24998 8.99998Z" fill="#AAAAAA"/>
</svg>
