<svg width="14" height="14" viewBox="0 0 14 14" fill="none" xmlns="http://www.w3.org/2000/svg">
<path fill-rule="evenodd" clip-rule="evenodd" d="M6.99996 1.60419C4.01992 1.60419 1.60413 4.01998 1.60413 7.00002C1.60413 9.98006 4.01992 12.3959 6.99996 12.3959C9.98 12.3959 12.3958 9.98006 12.3958 7.00002C12.3958 4.01998 9.98 1.60419 6.99996 1.60419ZM0.729126 7.00002C0.729126 3.53673 3.53667 0.729187 6.99996 0.729187C10.4632 0.729187 13.2708 3.53673 13.2708 7.00002C13.2708 10.4633 10.4632 13.2709 6.99996 13.2709C3.53667 13.2709 0.729126 10.4633 0.729126 7.00002ZM6.56245 4.66669C6.56245 4.42506 6.75833 4.22919 6.99995 4.22919H7.00578C7.24741 4.22919 7.44328 4.42506 7.44328 4.66669C7.44328 4.90831 7.24741 5.10419 7.00578 5.10419H6.99995C6.75833 5.10419 6.56245 4.90831 6.56245 4.66669ZM6.99995 6.56251C7.24157 6.56251 7.43745 6.75839 7.43745 7.00001V9.33334C7.43745 9.57497 7.24157 9.77084 6.99995 9.77084C6.75833 9.77084 6.56245 9.57497 6.56245 9.33334V7.00001C6.56245 6.75839 6.75833 6.56251 6.99995 6.56251Z" fill="#2F363D"/>
</svg>
