<svg width="14" height="14" viewBox="0 0 14 14" fill="none" xmlns="http://www.w3.org/2000/svg">
<rect x="0.5" y="0.5" width="13" height="13" rx="6.5" fill="#C41605"/>
<rect x="0.5" y="0.5" width="13" height="13" rx="6.5" stroke="white"/>
<g clip-path="url(#clip0_1935_7291)">
<path d="M9.88197 6.54446C9.8278 6.5514 9.77224 6.55557 9.71391 6.55557C9.3528 6.55557 9.03058 6.39724 8.80974 6.15279C8.58891 6.39724 8.26669 6.55557 7.90419 6.55557C7.54169 6.55557 7.21946 6.39724 6.99863 6.15279C6.7778 6.39724 6.45696 6.55557 6.09307 6.55557C5.73196 6.55557 5.40974 6.39724 5.18891 6.15279C4.96807 6.39724 4.64585 6.55557 4.28279 6.55557C4.2264 6.55557 4.1696 6.5514 4.11446 6.54446C3.34613 6.44168 2.98258 5.53612 3.39349 4.88612L4.18974 3.62682C4.26057 3.51361 4.3871 3.44446 4.52224 3.44446H9.4778C9.61252 3.44446 9.73891 3.5136 9.80974 3.62682L10.6056 4.88612C11.0181 5.53751 10.6528 6.44168 9.88197 6.54446ZM9.9403 6.98474C9.98752 6.97779 10.0556 6.96668 10.1111 6.95279V9.66668C10.1111 10.157 9.71252 10.5556 9.22224 10.5556H4.77779C4.28696 10.5556 3.8889 10.157 3.8889 9.66668V6.95279C3.94265 6.96668 3.99807 6.97779 4.05515 6.98474H4.05682C4.12988 6.99446 4.20599 7.00001 4.28279 7.00001C4.45557 7.00001 4.62224 6.97362 4.77779 6.92501V8.77779H9.22224V6.9264C9.3778 6.97362 9.54308 7.00001 9.71391 7.00001C9.79169 7.00001 9.86669 6.99446 9.9403 6.98474Z" fill="white"/>
</g>
<defs>
<clipPath id="clip0_1935_7291">
<rect width="8" height="7.11111" fill="white" transform="translate(3 3.44446)"/>
</clipPath>
</defs>
</svg>
