<svg width="30" height="34" viewBox="0 0 30 34" fill="none" xmlns="http://www.w3.org/2000/svg">
<path d="M19.9274 25.5119H28.4344L26.0439 23.1217C25.3957 22.4734 25.0316 21.5942 25.0316 20.6775V15.3036C25.0316 10.8589 22.1903 7.07757 18.226 5.67614V5.09528C18.226 3.21593 16.7033 1.6925 14.8233 1.6925C12.9432 1.6925 11.4205 3.21593 11.4205 5.09528V5.67614C7.45626 7.07757 4.61494 10.8589 4.61494 15.3036V20.6775C4.61494 21.5942 4.25084 22.4734 3.60261 23.1217L1.21216 25.5119H9.7191M19.9274 25.5119V27.2133C19.9274 30.0324 17.6425 32.3175 14.8233 32.3175C12.0041 32.3175 9.7191 30.0324 9.7191 27.2133V25.5119M19.9274 25.5119H9.7191" stroke="#9E9E9E" stroke-width="2" stroke-linecap="round" stroke-linejoin="round"/>
</svg>
