<svg width="14" height="14" viewBox="0 0 14 14" fill="none" xmlns="http://www.w3.org/2000/svg">
<g clip-path="url(#clip0_1969_11961)">
<path d="M9.29116 0.170136L9.36637 0.236548L13.7671 4.63732C13.902 4.77293 13.9839 4.95236 13.9979 5.14311C14.0118 5.33387 13.957 5.52332 13.8434 5.67714C13.7297 5.83096 13.5647 5.93897 13.3782 5.98161C13.1918 6.02424 12.9962 5.99868 12.827 5.90955L10.2889 8.44679L9.14954 11.4849C9.11952 11.5651 9.07684 11.6399 9.02311 11.7066L8.9671 11.7706L7.76689 12.9708C7.62901 13.1084 7.44565 13.191 7.25119 13.2031C7.05674 13.2152 6.86456 13.1559 6.71071 13.0364L6.63469 12.97L4.3999 10.736L1.36497 13.7701C1.22097 13.9136 1.02776 13.9969 0.824564 14.0031C0.621369 14.0094 0.42343 13.938 0.270951 13.8035C0.118472 13.6691 0.0228862 13.4816 0.00360788 13.2793C-0.0156704 13.0769 0.0428044 12.8748 0.167156 12.7139L0.233567 12.6387L3.2677 9.6038L1.03371 7.369C0.895943 7.23122 0.813183 7.04791 0.800956 6.85346C0.788729 6.659 0.847874 6.46677 0.967296 6.31282L1.03371 6.2376L2.23392 5.03739C2.29429 4.9768 2.36399 4.92629 2.44036 4.88777L2.51877 4.85416L5.5561 3.71396L8.09335 1.17751C8.00683 1.01575 7.97852 0.82917 8.01317 0.649024C8.04782 0.468878 8.14331 0.306107 8.28366 0.187977C8.42401 0.0698465 8.60069 0.00353061 8.78411 0.000137016C8.96752 -0.00325657 9.14654 0.0572785 9.29116 0.170136Z" fill="#AAAAAA"/>
</g>
<defs>
<clipPath id="clip0_1969_11961">
<rect width="14" height="14.0035" fill="white"/>
</clipPath>
</defs>
</svg>
