<svg width="12" height="12" viewBox="0 0 12 12" fill="none" xmlns="http://www.w3.org/2000/svg">
<path fill-rule="evenodd" clip-rule="evenodd" d="M6.00006 1.1875C4.95302 1.1875 4.10423 2.03629 4.10423 3.08333C4.10423 4.13037 4.95302 4.97917 6.00006 4.97917C7.0471 4.97917 7.89589 4.13037 7.89589 3.08333C7.89589 2.03629 7.0471 1.1875 6.00006 1.1875ZM3.22923 3.08333C3.22923 1.55304 4.46977 0.3125 6.00006 0.3125C7.53035 0.3125 8.77089 1.55304 8.77089 3.08333C8.77089 4.61362 7.53035 5.85417 6.00006 5.85417C4.46977 5.85417 3.22923 4.61362 3.22923 3.08333ZM1.70743 8.12406C2.22706 7.60443 2.93184 7.3125 3.66671 7.3125H8.33337C9.06824 7.3125 9.77302 7.60443 10.2926 8.12406C10.8123 8.64369 11.1042 9.34846 11.1042 10.0833V11.25C11.1042 11.4916 10.9083 11.6875 10.6667 11.6875C10.4251 11.6875 10.2292 11.4916 10.2292 11.25V10.0833C10.2292 9.58053 10.0295 9.09832 9.67393 8.74278C9.31839 8.38724 8.83618 8.1875 8.33337 8.1875H3.66671C3.1639 8.1875 2.68169 8.38724 2.32615 8.74278C1.97061 9.09831 1.77087 9.58053 1.77087 10.0833V11.25C1.77087 11.4916 1.575 11.6875 1.33337 11.6875C1.09175 11.6875 0.895874 11.4916 0.895874 11.25V10.0833C0.895874 9.34846 1.1878 8.64369 1.70743 8.12406Z" fill="#2F363D"/>
</svg>
