<svg width="34" height="35" viewBox="0 0 34 35" fill="none" xmlns="http://www.w3.org/2000/svg">
<g clip-path="url(#clip0_1935_7742)">
<path fill-rule="evenodd" clip-rule="evenodd" d="M31.9215 17.5C31.9215 17.7881 31.7565 18.0508 31.4969 18.1757L12.405 27.3681C12.1279 27.5015 11.7975 27.4523 11.5714 27.2439C11.3453 27.0355 11.2693 26.7102 11.3797 26.4231L14.8116 17.5L11.3797 8.57684C11.2693 8.28982 11.3453 7.9645 11.5714 7.7561C11.7975 7.5477 12.1279 7.49845 12.405 7.63185L31.4969 16.8242C31.7565 16.9492 31.9215 17.2119 31.9215 17.5ZM16.1303 18.25L13.4588 25.196L27.885 18.25L16.1303 18.25ZM27.885 16.75L13.4588 9.80403L16.1303 16.75L27.885 16.75Z" fill="#AAAAAA"/>
</g>
<defs>
<clipPath id="clip0_1935_7742">
<rect width="24" height="24" fill="white" transform="translate(17.0294 0.529419) rotate(45)"/>
</clipPath>
</defs>
</svg>
