<svg width="6" height="22" viewBox="0 0 6 22" fill="none" xmlns="http://www.w3.org/2000/svg">
<path d="M5.5 2.75C5.5 3.04547 5.4418 3.33806 5.32873 3.61104C5.21566 3.88402 5.04992 4.13206 4.84099 4.34099C4.63206 4.54992 4.38402 4.71566 4.11104 4.82873C3.83806 4.9418 3.54547 5 3.25 5C2.95453 5 2.66194 4.9418 2.38896 4.82873C2.11598 4.71566 1.86794 4.54992 1.65901 4.34099C1.45008 4.13206 1.28434 3.88402 1.17127 3.61104C1.0582 3.33805 1 3.04547 1 2.75C1 2.15326 1.23705 1.58097 1.65901 1.15901C2.08097 0.737053 2.65326 0.5 3.25 0.5C3.84674 0.5 4.41903 0.737053 4.84099 1.15901C5.26295 1.58097 5.5 2.15326 5.5 2.75ZM4.84099 12.591L5.18834 12.9383L4.84099 12.591C4.63206 12.7999 4.38402 12.9657 4.11104 13.0787C3.83805 13.1918 3.54547 13.25 3.25 13.25C2.95453 13.25 2.66195 13.1918 2.38896 13.0787C2.11598 12.9657 1.86794 12.7999 1.65901 12.591C1.45008 12.3821 1.28434 12.134 1.17127 11.861C1.0582 11.5881 1 11.2955 1 11C1 10.4033 1.23705 9.83097 1.65901 9.40901C2.08097 8.98705 2.65326 8.75 3.25 8.75C3.84674 8.75 4.41903 8.98705 4.84099 9.40901C5.26295 9.83097 5.5 10.4033 5.5 11C5.5 11.2955 5.4418 11.5881 5.32873 11.861L5.79067 12.0524L5.32873 11.861C5.21566 12.134 5.04992 12.3821 4.84099 12.591ZM5.5 19.25C5.5 19.5455 5.4418 19.8381 5.32873 20.111C5.21566 20.384 5.04992 20.6321 4.84099 20.841C4.63206 21.0499 4.38402 21.2157 4.11104 21.3287C3.83806 21.4418 3.54548 21.5 3.25 21.5C2.95452 21.5 2.66194 21.4418 2.38896 21.3287C2.11598 21.2157 1.86794 21.0499 1.65901 20.841C1.45008 20.6321 1.28434 20.384 1.17127 20.111C1.0582 19.8381 1 19.5455 1 19.25C1 18.6533 1.23705 18.081 1.65901 17.659C2.08097 17.2371 2.65326 17 3.25 17C3.84674 17 4.41903 17.2371 4.84099 17.659C5.26295 18.081 5.5 18.6533 5.5 19.25Z" stroke="#A91B0D"/>
</svg>
