<svg width="11" height="11" viewBox="0 0 11 11" fill="none" xmlns="http://www.w3.org/2000/svg">
<path fill-rule="evenodd" clip-rule="evenodd" d="M0.625 1C0.625 0.792893 0.792893 0.625 1 0.625H6C6.09946 0.625 6.19484 0.664509 6.26516 0.734835L10.561 5.03062C10.817 5.28825 10.9608 5.63674 10.9608 6C10.9608 6.36326 10.817 6.71175 10.561 6.96938L10.5602 6.97016L6.97531 10.555C6.84761 10.6829 6.69597 10.7843 6.52904 10.8535C6.36212 10.9227 6.1832 10.9583 6.0025 10.9583C5.82181 10.9583 5.64288 10.9227 5.47596 10.8535C5.30911 10.7843 5.15752 10.6829 5.02985 10.5552C5.0298 10.5551 5.02991 10.5552 5.02985 10.5552L0.734989 6.26532C0.664569 6.19498 0.625 6.09953 0.625 6V1ZM1.375 1.375V5.84454L5.56001 10.0247C5.61806 10.0828 5.68729 10.1292 5.76316 10.1606C5.83904 10.1921 5.92036 10.2083 6.0025 10.2083C6.08464 10.2083 6.16597 10.1921 6.24184 10.1606C6.31771 10.1292 6.38664 10.0831 6.44469 10.025L10.029 6.44062C10.029 6.44072 10.0291 6.44053 10.029 6.44062C10.1453 6.32355 10.2108 6.16498 10.2108 6C10.2108 5.83502 10.1456 5.67674 10.0293 5.55967C10.0292 5.55957 10.0294 5.55976 10.0293 5.55967L5.84467 1.375H1.375ZM3.12498 3.49998C3.12498 3.29288 3.29288 3.12498 3.49998 3.12498H3.50498C3.71209 3.12498 3.87998 3.29288 3.87998 3.49998C3.87998 3.70709 3.71209 3.87498 3.50498 3.87498H3.49998C3.29288 3.87498 3.12498 3.70709 3.12498 3.49998Z" fill="#2F363D"/>
</svg>
