<svg width="12" height="12" viewBox="0 0 12 12" fill="none" xmlns="http://www.w3.org/2000/svg">
<path fill-rule="evenodd" clip-rule="evenodd" d="M5.00001 1.375C4.83425 1.375 4.67528 1.44085 4.55807 1.55806C4.44086 1.67527 4.37501 1.83424 4.37501 2V2.62499H7.62501V2C7.62501 1.83424 7.55916 1.67527 7.44195 1.55806C7.32474 1.44085 7.16577 1.375 7.00001 1.375H5.00001ZM8.37501 2.62499V2C8.37501 1.63533 8.23014 1.28559 7.97228 1.02773C7.71442 0.769866 7.36468 0.625 7.00001 0.625H5.00001C4.63534 0.625 4.2856 0.769866 4.02774 1.02773C3.76987 1.28559 3.62501 1.63533 3.62501 2V2.62499L1.5 2.62499C1.29289 2.62499 1.125 2.79289 1.125 2.99999C1.125 3.2071 1.29289 3.37499 1.5 3.37499H2.125L2.12501 10C2.12501 10.3647 2.26987 10.7144 2.52774 10.9723C2.7856 11.2301 3.13534 11.375 3.50001 11.375H8.50001C8.86468 11.375 9.21442 11.2301 9.47228 10.9723C9.73014 10.7144 9.87501 10.3647 9.87501 10V3.37499H10.5C10.7071 3.37499 10.875 3.2071 10.875 2.99999C10.875 2.79289 10.7071 2.62499 10.5 2.62499H8.37501ZM4.00225 3.37499C4.0015 3.375 4.00076 3.375 4.00001 3.375C3.99926 3.375 3.99851 3.375 3.99777 3.37499L2.875 3.37499L2.87501 10C2.87501 10.1658 2.94086 10.3247 3.05807 10.4419C3.17528 10.5592 3.33425 10.625 3.50001 10.625H8.50001C8.66577 10.625 8.82474 10.5592 8.94195 10.4419C9.05916 10.3247 9.12501 10.1658 9.12501 10V3.375L8.00118 3.375C8.00079 3.375 8.0004 3.375 8.00001 3.375C7.99962 3.375 7.99923 3.375 7.99884 3.375L4.00225 3.37499ZM4.99999 5.125C5.2071 5.125 5.37499 5.29289 5.37499 5.5V8.5C5.37499 8.70711 5.2071 8.875 4.99999 8.875C4.79289 8.875 4.62499 8.70711 4.62499 8.5V5.5C4.62499 5.29289 4.79289 5.125 4.99999 5.125ZM7.00001 5.125C7.20711 5.125 7.37501 5.29289 7.37501 5.5V8.5C7.37501 8.70711 7.20711 8.875 7.00001 8.875C6.7929 8.875 6.62501 8.70711 6.62501 8.5V5.5C6.62501 5.29289 6.7929 5.125 7.00001 5.125Z" fill="#2F363D"/>
</svg>
