<svg width="14" height="14" viewBox="0 0 14 14" fill="none" xmlns="http://www.w3.org/2000/svg">
<path fill-rule="evenodd" clip-rule="evenodd" d="M0.274015 0.273954C0.444869 0.103099 0.721879 0.103099 0.892733 0.273954L3.9557 3.33692C3.95918 3.34029 3.9626 3.34371 3.96597 3.34719L13.7261 13.1073C13.8969 13.2781 13.8969 13.5552 13.7261 13.726C13.5552 13.8969 13.2782 13.8969 13.1073 13.726L9.73554 10.3542H1.75005C1.55726 10.3542 1.38719 10.228 1.33132 10.0435C1.27592 9.86048 1.34579 9.6629 1.50342 9.55534L1.50845 9.55166C1.51503 9.54677 1.52754 9.53718 1.54516 9.52249C1.58041 9.49312 1.63617 9.4433 1.70588 9.36971C1.84509 9.22278 2.04112 8.97983 2.24097 8.61345C2.63942 7.88295 3.16341 5.75903 3.16349 3.78214M2.73578 9.47919H8.86054L3.93924 4.5579C3.93803 4.59379 3.93746 4.62971 3.93755 4.66566L3.93755 4.66669C3.93755 6.77282 3.48564 8.15884 3.00913 9.03244C2.9175 9.20043 2.82531 9.34882 2.73578 9.47919ZM3.16349 3.78214L0.274015 0.892672C0.10316 0.721818 0.10316 0.444808 0.274015 0.273954M6.81035 0.728517C7.52282 0.694147 8.23125 0.853963 8.85996 1.19089C9.48867 1.52782 10.0141 2.02921 10.38 2.6415C10.7459 3.25381 10.9386 3.95403 10.9375 4.66731L10.9375 4.67366C10.9225 5.61707 11.0409 6.55786 11.2896 7.46805C11.3532 7.70113 11.2159 7.9417 10.9828 8.00537C10.7497 8.06904 10.5092 7.9317 10.4455 7.69862C10.1754 6.70985 10.0465 5.68786 10.0625 4.663C10.0628 4.10923 9.91297 3.56573 9.62889 3.09038C9.34428 2.61415 8.93565 2.22418 8.44665 1.96213C7.95766 1.70007 7.40665 1.57577 6.85251 1.6025C6.29836 1.62923 5.76188 1.80599 5.30038 2.1139C5.09939 2.24801 4.82774 2.19378 4.69363 1.99278C4.55953 1.79179 4.61376 1.52014 4.81476 1.38604C5.40812 0.990152 6.09787 0.762888 6.81035 0.728517ZM5.77136 11.8716C5.98036 11.7503 6.24808 11.8215 6.36932 12.0305C6.43342 12.141 6.52542 12.2327 6.63611 12.2964C6.74681 12.3602 6.87231 12.3938 7.00005 12.3938C7.12779 12.3938 7.25329 12.3602 7.36399 12.2964C7.47468 12.2327 7.56668 12.141 7.63078 12.0305C7.75202 11.8215 8.01974 11.7503 8.22874 11.8716C8.43775 11.9928 8.50889 12.2605 8.38766 12.4695C8.24664 12.7126 8.04424 12.9144 7.80071 13.0547C7.55719 13.1949 7.28108 13.2688 7.00005 13.2688C6.71902 13.2688 6.44292 13.1949 6.19939 13.0547C5.95586 12.9144 5.75346 12.7126 5.61245 12.4695C5.49121 12.2605 5.56235 11.9928 5.77136 11.8716Z" fill="#2F363D"/>
</svg>
